<svg viewBox="0 0 352.74 44.45" xmlns="http://www.w3.org/2000/svg"><path d="m228.18 39.12c0 .63.07 1.14.44 1.14 1 0 5-.11 7.77-.11 3.39 0 7.11.11 7.88.11.52 0 .55-.33.55-1.07s-.11-1.11-.66-1.11c-2.47-.15-3.35-.33-3.87-1.77-.59-.85-.66-3.09-.66-6.48 0-2.36 0-4.38 0-6.63a29.62 29.62 0 0 0 5-.07 48.25 48.25 0 0 0  7 12.86c2 2.39 6.74 7.63 14.07 8.44a10.21 10.21 0 0 0 3.9-.55c.55-.18.55-.37.55-1.18s-.07-.92-.48-.92a7.87 7.87 0 0 1 -3.43-.66c-1.58-.77-4.64-2.69-8.29-7.15-2.84-3.5-6-9.87-7.22-12.41a10.9 10.9 0 0 0 7.07-10.65c0-8.18-7-10.46-11.57-10.46-1.77 0-7.7.41-11.38.37-.41 0-5.08 0-5.53 0-.7 0-1 0-1 1.07s0 1 .66 1.07c2.21.22 3.06.29 3.54 1.84s.44 8.33.44 10.65c0 5.34 0 12.75-.18 17.42-.07 2.25-.22 4.68-3.28 5.12-1.22.15-1.36.26-1.36 1.14zm11.46-18.79c0-1.18.07-11 .11-14.33v-1.14c.11-1.44.41-1.77 2.8-1.77s4.83.66 6.26 2.84a11.06 11.06 0 0 1 1.58 6.34c0 7.77-4.24 8.33-7.92 8.33a13 13 0 0 1 -2.84-.26z" fill-rule="evenodd"/><path d="m196.06 39.12c0 1 0 1 .77 1s1.73 0 3-.07c1.62 0 3.87-.07 7-.07 4.9 0 8.69.07 11.38.07l4.83.07c.66 0 .85-.29 1.07-1.33a69.09 69.09 0 0 0 1.89-9.1c0-.48-.77-.77-1.18-.85s-.85 0-1.22 1.14c-2 5.6-3.28 6.93-11.24 6.93-3.91 0-4.38-.77-4.57-2.5s-.22-11.13-.22-13.34c5.89 0 7.92 0 9.69.59s2 2 2.21 3.94c.07.85.29.92 1.1.92s.85-.15.85-.85-.11-4.05-.11-5.89.11-4.53.11-6.08c0-.41-.33-.59-.92-.59-1 0-1 .07-1.14 1.18-.44 3.54-.74 3.9-11.71 3.87 0-2.51 0-8 0-10.54 0-1.22 0-3 .33-3.35.52-.63 4.2-.63 5.19-.63 8.29 0 8.4 1.25 8.92 6.08.11.88.22 1.07 1.07 1.07s1.07-.15 1.07-.66c.11-2 .18-3 .26-4.16.11-1.69.44-4 .44-4.49s-.26-.81-.88-.81c-1.62 0-3.61 0-5.78 0-3.24.07-7.15.15-10.68.15-.81 0-2.47 0-4.09-.07-2.39 0-4.53-.11-6.08-.11-.7 0-1 0-1 1.14s.07 1.07.92 1.07c2.1.07 3.17.55 3.35 2.95.15 2.14.18 7.52.18 13.48 0 3.43 0 11.57-.22 14.66-.22 2.65-.74 3.72-3.28 4-1.25.11-1.29.15-1.29 1.18z"/><path d="m72.76 20.7c0 4.72 1.25 10.94 5.75 15.18 3.65 3.43 8.62 4.94 14 4.94 4.64 0 10-1.14 11.13-1.8.26-.15.33-.48.66-1.77.37-1.55 1.4-6.41 1.4-6.45 0-.7-1.44-.81-1.62-.81s-.15 0-.26.18a9 9 0 0 0 -1.44 2.39c-2.06 4.27-6 5.23-9 5.23-7 0-13-5.67-13-18.05 0-6 1.47-9.87 3.5-12.41s4.86-3.94 9.1-3.94c2.17 0 6.19.33 7.81 2.43.7.74 1.36 2.39 1.62 5 .18 1.25.33 1.36 1.29 1.36.74 0 .92-.11 1-.55.11-1.18.26-3.79.41-5.45.07-.88.63-4.86.63-5.42 0-.22-.22-.41-.92-.41-.22 0-.7.22-.92.22a1.41 1.41 0 0 1 -.63.15c-.81 0-1.84-.18-2.62-.29a61.05 61.05 0 0 0 -6.38-.43c-5.19 0-9.76 1.11-13.37 3.68-5.16 3.65-8.14 9.54-8.14 17z"/><path d="m107.35 20.56c0 10.72 6.12 20.26 19 20.26 14.22 0 20.19-11.31 20.19-20.85 0-11.49-7.48-20-19-20-8 0-20.22 5.19-20.22 20.56zm7.44-1.66c0-3.57.74-9.36 4-12.71a10 10 0 0 1 7.37-3c7.37 0 13 7.55 13 18.86s-5.89 15.66-11.38 15.66c-7 0-13-6.82-13-18.79z" fill-rule="evenodd"/><path d="m296.19 39c0 .92.18 1.07.66 1.07 1.73 0 5.78-.11 7.92-.11s7.48.11 8.88.11c.48 0 .52-.15.52-1s0-1-.41-1a20.23 20.23 0 0 0 -2.14-.15 2.26 2.26 0 0 1 -2.39-1.92c-.63-1.84-.66-6.63-.66-16.87 0-5.19 0-10.13.26-11.9.32-3.32 1.17-4.1 4.17-4.23 1.22-.07 1.22-.18 1.22-1.51 0-.66-.11-.85-.66-.85a7 7 0 0 0 -.85 0c-1.73 0-5.6.11-7.52.11-2.43 0-6.78-.15-8-.15-.74 0-.88 0-.88 1.11s0 1.14 1 1.22c2.76.15 3.57.22 4.13 1.8.41 1.25.44 4.16.48 7.92v2.62c0 4.86 0 13-.26 16.91-.11 3.46-.59 5.34-3.91 5.6-1.33.11-1.51.15-1.51 1.18z"/><path d="m31.68 39.09c0-1.07.07-1.07 1.18-1.18 3.13-.37 3.43-2.43 3.61-5.49.22-4.13.22-11.27.22-15.21 0-4.64 0-9.69-.26-11.68-.25-2.36-1.29-2.47-3.43-2.66-.74-.11-.77-.22-.77-1.14s.11-1.07 1-1.07c2 0 4.05.15 6.85.15 3.09 0 6.3-.15 7.88-.15.44 0 .59.18.59.85 0 1.21 0 1.36-1.18 1.44-2.65.11-3.5 1.14-3.68 3.9s-.22 9.73-.22 18.24v5.86c0 5 .37 5.71 3.43 5.71 9.5 0 10.5-1.33 11.68-5.08.59-1.92.66-3.09 1.14-3.09a2.26 2.26 0 0 1 1.47.44c.15.11.15.41.15 1.22a68.51 68.51 0 0 1 -1.26 7.85c-.26 1.47-.48 2.17-1.14 2.17-.88 0-2.69-.11-6.41-.15h-1.73c-2.06 0-3.87-.11-10.13-.07-6.59 0-7.7.18-8.4.18-.48 0-.59-.18-.59-1.07z"/><path d="m189.39 10.28c0 3.21.15 18 .33 23a7.1 7.1 0 0 0  .41 3c .85 1.36 1.33 1.55 3.79 1.7.55 0 .66.29.66 1.1s-.07 1.07-.59 1.07h-2.1c-1.33 0-2.95-.07-5.56-.07-.59 0-1.4 0-2.17 0-2.8 0-5 .11-6.12.11-.44 0-.55-.15-.55-1.14s.15-1 1.33-1.11c3.94-.41 4.13-.81 4.13-10.65 0-1.73 0-7.18 0-11.49 0-2.95.07-5.71.15-6.56-1.11 3.43-1.84 5-8 18.2a116.64 116.64 0 0 0 -4.68 11.05c-.18.52-.52.66-1 .81a19.33 19.33 0 0 1 -2.1.63c-.29 0-.48-.52-.85-1.62-1.14-3.46-4.57-11.42-6.67-16.32-3.68-8.58-4.42-10.24-5.12-13.19v2c0 2.36-.11 12.75-.11 14.88 0 4.27 0 8.66.7 10.39.44 1.11 1.14 1.51 2.69 1.69a5 5 0 0 1  .7.07l1.11.07c.55 0 .66.41.66 1.22s-.07 1.07-.59 1.07-1.73-.07-3.39-.11h-.22c-.85 0-2.58 0-4.83 0-1.47 0-5 .15-5.82.15-.55 0-.63-.11-.63-1.25 0-.81.07-.92 1-1 3.28-.33 4.2-1.36 4.64-5.82s1.11-22.58 1.11-24c0-3.76-.92-4.75-4.35-5.12-.85-.07-1-.18-1-1 0-1 .07-1.25 1-1.25s3.28.07 5.53.07c1.66 0 3.57-.07 4.72-.07.7 0 .88.77 1.25 1.84 1 3.13 2.76 7.44 4.79 12.08.74 1.73 2 4.53 3.39 7.66 1.07 2.32 3.09 6.93 3.61 8.1.26-.55 9.58-20.67 10.2-22.36a45.71 45.71 0 0 0 2.16-6.53c.22-.81.33-.88.77-.88 1.69 0 3.43.07 5.16.07 2 0 3.76-.11 4.83-.11.41 0 .59.18.59.85 0 1.21 0 1.36-1.18 1.44-1.84.07-2.84.63-3.32 1.84s-.44 2.73-.44 5.49z"/><path d="m260.93 20.7c0 4.72 1.25 10.94 5.75 15.18 3.65 3.43 8.62 4.94 14 4.94 4.68 0 10-1.14 11.12-1.8.26-.15.37-.48.7-1.77.33-1.55 1.4-6.41 1.4-6.45 0-.7-1.44-.81-1.62-.81s-.15 0-.26.18a9 9 0 0 0 -1.44 2.39c-2.06 4.27-6 5.23-9 5.23-7 0-13-5.67-13-18.05 0-6 1.47-9.87 3.5-12.41s4.86-3.94 9.1-3.94c2.17 0 6.19.33 7.81 2.43.7.74 1.33 2.39 1.62 5 .15 1.25.33 1.36 1.29 1.36.7 0 .92-.11 1-.55.11-1.18.22-3.79.41-5.45 0-.88.59-4.86.59-5.42 0-.22-.18-.41-.88-.41-.22 0-.7.22-1 .22a1.17 1.17 0 0 1 -.59.15c-.81 0-1.84-.18-2.62-.29a61.69 61.69 0 0 0 -6.36-.43c-5.19 0-9.76 1.11-13.37 3.68-5.16 3.65-8.14 9.54-8.14 17z"/><path d="m313.54 20.56c0 10.72 6.12 20.26 19 20.26 14.26 0 20.22-11.31 20.22-20.85 0-11.49-7.48-20-19-20-8 0-20.23 5.19-20.23 20.56zm7.46-1.66c0-3.57.74-9.36 4-12.71a10 10 0 0 1 7.37-3c7.37 0 13 7.55 13 18.86s-5.89 15.66-11.38 15.66c-7 0-13-6.82-13-18.79z" fill-rule="evenodd"/><path d="m0 39.12c0 1 0 1 .77 1s1.73 0 3-.07c1.62 0 3.87-.07 7-.07 4.9 0 8.69.07 11.38.07l4.83.07c.7 0 .85-.29 1.1-1.33a73.51 73.51 0 0 0 1.84-9.14c0-.48-.74-.77-1.18-.85s-.85 0-1.22 1.14c-2 5.6-3.28 6.93-11.24 6.93-3.9 0-4.38-.77-4.57-2.5s-.22-11.13-.22-13.34c5.89 0 7.92 0 9.69.59s2 2 2.25 3.94c0 .85.26.92 1.07.92s.85-.15.85-.85-.11-4.05-.11-5.89.11-4.53.11-6.08c0-.41-.29-.59-.92-.59-1 0-1 .07-1.14 1.18-.44 3.54-.74 3.9-11.71 3.87 0-2.51 0-8 0-10.54 0-1.22 0-3 .33-3.35.52-.63 4.2-.63 5.19-.63 8.29 0 8.4 1.25 9 6.08.07.88.18 1.07 1.07 1.07s1.07-.15 1.07-.66c.07-2 .15-3 .22-4.16.11-1.69.44-4 .44-4.49s-.28-.78-.9-.78c-1.62 0-3.61 0-5.78 0-3.24.07-7.11.15-10.68.15-.81 0-2.43 0-4.09-.07-2.45 0-4.54-.08-6.12-.08-.7 0-1 0-1 1.14s.07 1.07.92 1.07c2.1.07 3.17.55 3.35 2.95.15 2.14.18 7.52.18 13.48 0 3.43 0 11.57-.22 14.66-.22 2.65-.74 3.72-3.24 4-1.32.09-1.32.13-1.32 1.16z"/></svg>